<svg width="131" height="38" viewBox="0 0 131 38" fill="none" xmlns="http://www.w3.org/2000/svg">
<g filter="url(#filter0_d_132_6)">
<rect x="4" width="123" height="30" rx="10" fill="black"/>
</g>
<path d="M22.999 12.4553C22.999 11.2974 22.2114 11.2974 22.2114 11.2974H18.977V13.7798H22.0109C22.5348 13.7798 22.999 13.6116 22.999 12.4553ZM22.2114 15.4957H18.977V18.4681H22.0659C22.53 18.4552 23.3887 18.3064 23.3887 17.0223C23.3839 15.486 22.2114 15.4957 22.2114 15.4957ZM30.5028 13.7798C28.7837 13.7798 28.5444 15.494 28.5444 15.494H32.1993C32.1993 15.494 32.2219 13.7798 30.5028 13.7798Z" fill="white"/>
<path d="M33.1421 5H17.8595C17.2337 5 16.6336 5.24859 16.1911 5.69108C15.7486 6.13358 15.5 6.73373 15.5 7.35951V22.6405C15.5 23.2663 15.7486 23.8664 16.1911 24.3089C16.6336 24.7514 17.2337 25 17.8595 25H33.1405C33.7663 25 34.3664 24.7514 34.8089 24.3089C35.2514 23.8664 35.5 23.2663 35.5 22.6405V7.35951C35.5 6.73401 35.2516 6.1341 34.8095 5.69165C34.3673 5.24921 33.7676 5.00043 33.1421 5ZM28.0657 9.97453H32.6553V11.3459H28.0657V9.97453ZM25.745 17.1614C25.745 20.5575 22.2114 20.4459 22.2114 20.4459H16.4218V9.31956H22.2114C23.9709 9.31956 25.3601 10.2899 25.3601 12.2823C25.3601 14.2747 23.662 14.3992 23.662 14.3992C25.9003 14.3992 25.745 17.1614 25.745 17.1614ZM34.3308 16.9803H28.5735C28.5735 19.0471 30.5319 18.9209 30.5319 18.9209C32.3804 18.9209 32.3109 17.7242 32.3109 17.7242H34.2661C34.2661 20.9004 30.4592 20.6821 30.4592 20.6821C25.8906 20.6821 26.1849 16.4288 26.1849 16.4288C26.1849 16.4288 26.1849 12.1545 30.4592 12.1545C34.9631 12.1513 34.3324 16.9803 34.3324 16.9803H34.3308Z" fill="white"/>
<path d="M51.1286 15.288C51.7259 15.3947 52.2326 15.7093 52.6486 16.232C53.0646 16.7547 53.2726 17.3467 53.2726 18.008C53.2726 18.5733 53.1232 19.0853 52.8246 19.544C52.5366 19.992 52.1152 20.3493 51.5606 20.616C51.0059 20.872 50.3606 21 49.6246 21H45.1766V9.88H49.4166C50.1739 9.88 50.8246 10.008 51.3686 10.264C51.9126 10.52 52.3232 10.8667 52.6006 11.304C52.8779 11.7307 53.0166 12.2107 53.0166 12.744C53.0166 13.384 52.8459 13.9173 52.5046 14.344C52.1632 14.7707 51.7046 15.0853 51.1286 15.288ZM47.0006 14.552H49.2566C49.8539 14.552 50.3179 14.4187 50.6486 14.152C50.9899 13.8747 51.1606 13.48 51.1606 12.968C51.1606 12.4667 50.9899 12.0773 50.6486 11.8C50.3179 11.512 49.8539 11.368 49.2566 11.368H47.0006V14.552ZM49.4646 19.512C50.0832 19.512 50.5686 19.3627 50.9206 19.064C51.2726 18.7653 51.4486 18.3493 51.4486 17.816C51.4486 17.272 51.2619 16.84 50.8886 16.52C50.5152 16.2 50.0192 16.04 49.4006 16.04H47.0006V19.512H49.4646ZM63.3347 16.376C63.3347 16.7067 63.3134 17.0053 63.2707 17.272H56.5347C56.588 17.976 56.8494 18.5413 57.3187 18.968C57.788 19.3947 58.364 19.608 59.0467 19.608C60.028 19.608 60.7214 19.1973 61.1267 18.376H63.0947C62.828 19.1867 62.3427 19.8533 61.6387 20.376C60.9454 20.888 60.0814 21.144 59.0467 21.144C58.204 21.144 57.4467 20.9573 56.7747 20.584C56.1134 20.2 55.5907 19.6667 55.2067 18.984C54.8334 18.2907 54.6467 17.4907 54.6467 16.584C54.6467 15.6773 54.828 14.8827 55.1907 14.2C55.564 13.5067 56.0814 12.9733 56.7427 12.6C57.4147 12.2267 58.1827 12.04 59.0467 12.04C59.8787 12.04 60.62 12.2213 61.2707 12.584C61.9214 12.9467 62.428 13.4587 62.7907 14.12C63.1534 14.7707 63.3347 15.5227 63.3347 16.376ZM61.4307 15.8C61.42 15.128 61.18 14.5893 60.7107 14.184C60.2414 13.7787 59.66 13.576 58.9667 13.576C58.3374 13.576 57.7987 13.7787 57.3507 14.184C56.9027 14.5787 56.636 15.1173 56.5507 15.8H61.4307ZM69.6897 12.04C70.3617 12.04 70.959 12.184 71.4817 12.472C72.015 12.76 72.431 13.1867 72.7297 13.752C73.039 14.3173 73.1937 15 73.1937 15.8V21H71.3857V16.072C71.3857 15.2827 71.1884 14.68 70.7937 14.264C70.399 13.8373 69.8604 13.624 69.1777 13.624C68.495 13.624 67.951 13.8373 67.5457 14.264C67.151 14.68 66.9537 15.2827 66.9537 16.072V21H65.1297V9.16H66.9537V13.208C67.263 12.8347 67.6524 12.5467 68.1217 12.344C68.6017 12.1413 69.1244 12.04 69.6897 12.04ZM74.9123 16.552C74.9123 15.6667 75.0936 14.8827 75.4563 14.2C75.8296 13.5173 76.331 12.9893 76.9603 12.616C77.6003 12.232 78.3043 12.04 79.0723 12.04C79.7656 12.04 80.3683 12.1787 80.8803 12.456C81.403 12.7227 81.819 13.0587 82.1283 13.464V12.184H83.9683V21H82.1283V19.688C81.819 20.104 81.3976 20.4507 80.8643 20.728C80.331 21.0053 79.723 21.144 79.0403 21.144C78.283 21.144 77.5896 20.952 76.9603 20.568C76.331 20.1733 75.8296 19.6293 75.4563 18.936C75.0936 18.232 74.9123 17.4373 74.9123 16.552ZM82.1283 16.584C82.1283 15.976 82.0003 15.448 81.7443 15C81.499 14.552 81.1736 14.2107 80.7683 13.976C80.363 13.7413 79.9256 13.624 79.4563 13.624C78.987 13.624 78.5496 13.7413 78.1443 13.976C77.739 14.2 77.4083 14.536 77.1523 14.984C76.907 15.4213 76.7843 15.944 76.7843 16.552C76.7843 17.16 76.907 17.6933 77.1523 18.152C77.4083 18.6107 77.739 18.9627 78.1443 19.208C78.5603 19.4427 78.9976 19.56 79.4563 19.56C79.9256 19.56 80.363 19.4427 80.7683 19.208C81.1736 18.9733 81.499 18.632 81.7443 18.184C82.0003 17.7253 82.1283 17.192 82.1283 16.584ZM90.8121 12.04C91.5054 12.04 92.1241 12.184 92.6681 12.472C93.2227 12.76 93.6547 13.1867 93.9641 13.752C94.2734 14.3173 94.4281 15 94.4281 15.8V21H92.6201V16.072C92.6201 15.2827 92.4227 14.68 92.0281 14.264C91.6334 13.8373 91.0947 13.624 90.4121 13.624C89.7294 13.624 89.1854 13.8373 88.7801 14.264C88.3854 14.68 88.1881 15.2827 88.1881 16.072V21H86.3641V12.184H88.1881V13.192C88.4867 12.8293 88.8654 12.5467 89.3241 12.344C89.7934 12.1413 90.2894 12.04 90.8121 12.04ZM96.1467 16.584C96.1467 15.6773 96.328 14.8827 96.6907 14.2C97.064 13.5067 97.576 12.9733 98.2267 12.6C98.8774 12.2267 99.624 12.04 100.467 12.04C101.533 12.04 102.413 12.296 103.107 12.808C103.811 13.3093 104.285 14.0293 104.531 14.968H102.563C102.403 14.5307 102.147 14.1893 101.795 13.944C101.443 13.6987 101 13.576 100.467 13.576C99.72 13.576 99.1227 13.8427 98.6747 14.376C98.2374 14.8987 98.0187 15.6347 98.0187 16.584C98.0187 17.5333 98.2374 18.2747 98.6747 18.808C99.1227 19.3413 99.72 19.608 100.467 19.608C101.523 19.608 102.221 19.144 102.563 18.216H104.531C104.275 19.112 103.795 19.8267 103.091 20.36C102.387 20.8827 101.512 21.144 100.467 21.144C99.624 21.144 98.8774 20.9573 98.2267 20.584C97.576 20.2 97.064 19.6667 96.6907 18.984C96.328 18.2907 96.1467 17.4907 96.1467 16.584ZM114.428 16.376C114.428 16.7067 114.407 17.0053 114.364 17.272H107.628C107.682 17.976 107.943 18.5413 108.412 18.968C108.882 19.3947 109.458 19.608 110.14 19.608C111.122 19.608 111.815 19.1973 112.22 18.376H114.188C113.922 19.1867 113.436 19.8533 112.732 20.376C112.039 20.888 111.175 21.144 110.14 21.144C109.298 21.144 108.54 20.9573 107.868 20.584C107.207 20.2 106.684 19.6667 106.3 18.984C105.927 18.2907 105.74 17.4907 105.74 16.584C105.74 15.6773 105.922 14.8827 106.284 14.2C106.658 13.5067 107.175 12.9733 107.836 12.6C108.508 12.2267 109.276 12.04 110.14 12.04C110.972 12.04 111.714 12.2213 112.364 12.584C113.015 12.9467 113.522 13.4587 113.884 14.12C114.247 14.7707 114.428 15.5227 114.428 16.376ZM112.524 15.8C112.514 15.128 112.274 14.5893 111.804 14.184C111.335 13.7787 110.754 13.576 110.06 13.576C109.431 13.576 108.892 13.7787 108.444 14.184C107.996 14.5787 107.73 15.1173 107.644 15.8H112.524Z" fill="white"/>
<defs>
<filter id="filter0_d_132_6" x="0" y="0" width="131" height="38" filterUnits="userSpaceOnUse" color-interpolation-filters="sRGB">
<feFlood flood-opacity="0" result="BackgroundImageFix"/>
<feColorMatrix in="SourceAlpha" type="matrix" values="0 0 0 0 0 0 0 0 0 0 0 0 0 0 0 0 0 0 127 0" result="hardAlpha"/>
<feOffset dy="4"/>
<feGaussianBlur stdDeviation="2"/>
<feComposite in2="hardAlpha" operator="out"/>
<feColorMatrix type="matrix" values="0 0 0 0 0 0 0 0 0 0 0 0 0 0 0 0 0 0 0.25 0"/>
<feBlend mode="normal" in2="BackgroundImageFix" result="effect1_dropShadow_132_6"/>
<feBlend mode="normal" in="SourceGraphic" in2="effect1_dropShadow_132_6" result="shape"/>
</filter>
</defs>
</svg>
