<svg width="138" height="38" viewBox="0 0 138 38" fill="none" xmlns="http://www.w3.org/2000/svg">
<g filter="url(#filter0_d_112_34)">
<rect x="4" width="130" height="30" rx="10" fill="#C623A2"/>
</g>
<path d="M13.2143 7C12.2679 7 11.5 7.76786 11.5 8.71429V21.2857C11.5 22.2321 12.2679 23 13.2143 23H25.7857C26.7321 23 27.5 22.2321 27.5 21.2857V8.71429C27.5 7.76786 26.7321 7 25.7857 7H13.2143ZM16.7457 11.7584C17.447 11.7584 18.0701 12.0008 18.5289 12.3645C18.9532 12.702 19.1519 13.0397 19.3253 13.3428L18.1137 13.9481C18.027 13.7494 17.9228 13.5414 17.6549 13.3166C17.3604 13.0826 17.0664 13.0136 16.8148 13.0136C15.8281 13.0136 15.3087 13.9312 15.3087 14.9524C15.3087 16.2943 15.993 16.9603 16.8148 16.9603C17.6112 16.9603 17.9319 16.4064 18.1391 16.0519L19.3429 16.6664C19.1173 17.0209 18.9009 17.3677 18.4161 17.7046C18.1567 17.8864 17.5598 18.2416 16.7112 18.2416C15.0924 18.2416 13.7857 17.0646 13.7857 14.9954C13.7857 13.1869 15.0148 11.7584 16.7457 11.7584ZM19.4415 11.9486H21.0689L22.3325 16.2943L23.587 11.9486H25.2143L23.0936 18.0598H21.5361L19.4415 11.9487V11.9486Z" fill="white"/>
<path d="M36.3498 15.416C36.3498 14.328 36.6005 13.352 37.1018 12.488C37.6138 11.624 38.3018 10.952 39.1658 10.472C40.0405 9.98133 40.9951 9.736 42.0298 9.736C43.2138 9.736 44.2645 10.0293 45.1818 10.616C46.1098 11.192 46.7818 12.0133 47.1978 13.08H45.0058C44.7178 12.4933 44.3178 12.056 43.8058 11.768C43.2938 11.48 42.7018 11.336 42.0298 11.336C41.2938 11.336 40.6378 11.5013 40.0618 11.832C39.4858 12.1627 39.0325 12.6373 38.7018 13.256C38.3818 13.8747 38.2218 14.5947 38.2218 15.416C38.2218 16.2373 38.3818 16.9573 38.7018 17.576C39.0325 18.1947 39.4858 18.6747 40.0618 19.016C40.6378 19.3467 41.2938 19.512 42.0298 19.512C42.7018 19.512 43.2938 19.368 43.8058 19.08C44.3178 18.792 44.7178 18.3547 45.0058 17.768H47.1978C46.7818 18.8347 46.1098 19.656 45.1818 20.232C44.2645 20.808 43.2138 21.096 42.0298 21.096C40.9845 21.096 40.0298 20.856 39.1658 20.376C38.3018 19.8853 37.6138 19.208 37.1018 18.344C36.6005 17.48 36.3498 16.504 36.3498 15.416ZM57.3168 12.184V21H55.4928V19.96C55.2048 20.3227 54.8261 20.6107 54.3568 20.824C53.8981 21.0267 53.4075 21.128 52.8848 21.128C52.1915 21.128 51.5675 20.984 51.0128 20.696C50.4688 20.408 50.0368 19.9813 49.7168 19.416C49.4075 18.8507 49.2528 18.168 49.2528 17.368V12.184H51.0608V17.096C51.0608 17.8853 51.2581 18.4933 51.6528 18.92C52.0475 19.336 52.5861 19.544 53.2688 19.544C53.9515 19.544 54.4901 19.336 54.8848 18.92C55.2901 18.4933 55.4928 17.8853 55.4928 17.096V12.184H57.3168ZM61.5474 13.464C61.8141 13.016 62.1661 12.6693 62.6034 12.424C63.0514 12.168 63.5794 12.04 64.1874 12.04V13.928H63.7234C63.0088 13.928 62.4648 14.1093 62.0914 14.472C61.7288 14.8347 61.5474 15.464 61.5474 16.36V21H59.7234V12.184H61.5474V13.464ZM67.6881 13.464C67.9547 13.016 68.3067 12.6693 68.7441 12.424C69.1921 12.168 69.7201 12.04 70.3281 12.04V13.928H69.8641C69.1494 13.928 68.6054 14.1093 68.2321 14.472C67.8694 14.8347 67.6881 15.464 67.6881 16.36V21H65.8641V12.184H67.6881V13.464ZM72.9327 11.016C72.602 11.016 72.3247 10.904 72.1007 10.68C71.8767 10.456 71.7647 10.1787 71.7647 9.848C71.7647 9.51733 71.8767 9.24 72.1007 9.016C72.3247 8.792 72.602 8.68 72.9327 8.68C73.2527 8.68 73.5247 8.792 73.7487 9.016C73.9727 9.24 74.0847 9.51733 74.0847 9.848C74.0847 10.1787 73.9727 10.456 73.7487 10.68C73.5247 10.904 73.2527 11.016 72.9327 11.016ZM73.8287 12.184V21H72.0047V12.184H73.8287ZM75.6154 16.584C75.6154 15.6773 75.7968 14.8827 76.1594 14.2C76.5328 13.5067 77.0448 12.9733 77.6954 12.6C78.3461 12.2267 79.0928 12.04 79.9354 12.04C81.0021 12.04 81.8821 12.296 82.5754 12.808C83.2794 13.3093 83.7541 14.0293 83.9994 14.968H82.0314C81.8714 14.5307 81.6154 14.1893 81.2634 13.944C80.9114 13.6987 80.4688 13.576 79.9354 13.576C79.1888 13.576 78.5914 13.8427 78.1434 14.376C77.7061 14.8987 77.4874 15.6347 77.4874 16.584C77.4874 17.5333 77.7061 18.2747 78.1434 18.808C78.5914 19.3413 79.1888 19.608 79.9354 19.608C80.9914 19.608 81.6901 19.144 82.0314 18.216H83.9994C83.7434 19.112 83.2634 19.8267 82.5594 20.36C81.8554 20.8827 80.9808 21.144 79.9354 21.144C79.0928 21.144 78.3461 20.9573 77.6954 20.584C77.0448 20.2 76.5328 19.6667 76.1594 18.984C75.7968 18.2907 75.6154 17.4907 75.6154 16.584ZM93.8012 12.184V21H91.9772V19.96C91.6892 20.3227 91.3105 20.6107 90.8412 20.824C90.3825 21.0267 89.8919 21.128 89.3692 21.128C88.6759 21.128 88.0519 20.984 87.4972 20.696C86.9532 20.408 86.5212 19.9813 86.2012 19.416C85.8919 18.8507 85.7372 18.168 85.7372 17.368V12.184H87.5452V17.096C87.5452 17.8853 87.7425 18.4933 88.1372 18.92C88.5319 19.336 89.0705 19.544 89.7532 19.544C90.4359 19.544 90.9745 19.336 91.3692 18.92C91.7745 18.4933 91.9772 17.8853 91.9772 17.096V12.184H93.8012ZM98.0318 9.16V21H96.2078V9.16H98.0318ZM108.411 12.184V21H106.587V19.96C106.299 20.3227 105.92 20.6107 105.451 20.824C104.992 21.0267 104.501 21.128 103.979 21.128C103.285 21.128 102.661 20.984 102.107 20.696C101.563 20.408 101.131 19.9813 100.811 19.416C100.501 18.8507 100.347 18.168 100.347 17.368V12.184H102.155V17.096C102.155 17.8853 102.352 18.4933 102.747 18.92C103.141 19.336 103.68 19.544 104.363 19.544C105.045 19.544 105.584 19.336 105.979 18.92C106.384 18.4933 106.587 17.8853 106.587 17.096V12.184H108.411ZM121.489 12.04C122.183 12.04 122.801 12.184 123.345 12.472C123.9 12.76 124.332 13.1867 124.641 13.752C124.961 14.3173 125.121 15 125.121 15.8V21H123.313V16.072C123.313 15.2827 123.116 14.68 122.721 14.264C122.327 13.8373 121.788 13.624 121.105 13.624C120.423 13.624 119.879 13.8373 119.473 14.264C119.079 14.68 118.881 15.2827 118.881 16.072V21H117.073V16.072C117.073 15.2827 116.876 14.68 116.481 14.264C116.087 13.8373 115.548 13.624 114.865 13.624C114.183 13.624 113.639 13.8373 113.233 14.264C112.839 14.68 112.641 15.2827 112.641 16.072V21H110.817V12.184H112.641V13.192C112.94 12.8293 113.319 12.5467 113.777 12.344C114.236 12.1413 114.727 12.04 115.249 12.04C115.953 12.04 116.583 12.1893 117.137 12.488C117.692 12.7867 118.119 13.2187 118.417 13.784C118.684 13.2507 119.1 12.8293 119.665 12.52C120.231 12.2 120.839 12.04 121.489 12.04Z" fill="white"/>
<defs>
<filter id="filter0_d_112_34" x="0" y="0" width="138" height="38" filterUnits="userSpaceOnUse" color-interpolation-filters="sRGB">
<feFlood flood-opacity="0" result="BackgroundImageFix"/>
<feColorMatrix in="SourceAlpha" type="matrix" values="0 0 0 0 0 0 0 0 0 0 0 0 0 0 0 0 0 0 127 0" result="hardAlpha"/>
<feOffset dy="4"/>
<feGaussianBlur stdDeviation="2"/>
<feComposite in2="hardAlpha" operator="out"/>
<feColorMatrix type="matrix" values="0 0 0 0 0 0 0 0 0 0 0 0 0 0 0 0 0 0 0.25 0"/>
<feBlend mode="normal" in2="BackgroundImageFix" result="effect1_dropShadow_112_34"/>
<feBlend mode="normal" in="SourceGraphic" in2="effect1_dropShadow_112_34" result="shape"/>
</filter>
</defs>
</svg>
