<svg width="108" height="38" viewBox="0 0 108 38" fill="none" xmlns="http://www.w3.org/2000/svg">
<g filter="url(#filter0_d_112_21)">
<rect x="4" width="100" height="30" rx="10" fill="#0A66C2"/>
</g>
<path d="M21.25 7H12.75C10.6789 7 9 8.67893 9 10.75V19.25C9 21.3211 10.6789 23 12.75 23H21.25C23.3211 23 25 21.3211 25 19.25V10.75C25 8.67893 23.3211 7 21.25 7Z" fill="white"/>
<path d="M21.25 7H12.75C10.6789 7 9 8.67893 9 10.75V19.25C9 21.3211 10.6789 23 12.75 23H21.25C23.3211 23 25 21.3211 25 19.25V10.75C25 8.67893 23.3211 7 21.25 7Z" fill="white"/>
<path d="M20.5447 20.6053H22.3741C22.4404 20.6053 22.5039 20.579 22.5508 20.5321C22.5977 20.4852 22.624 20.4217 22.6241 20.3554L22.625 16.4902C22.625 14.4701 22.1897 12.9173 19.8289 12.9173C18.9314 12.8839 18.0851 13.3465 17.6284 14.119C17.6262 14.1228 17.6228 14.1257 17.6188 14.1273C17.6147 14.129 17.6102 14.1292 17.606 14.1281C17.6018 14.1269 17.5981 14.1245 17.5954 14.121C17.5927 14.1175 17.5913 14.1133 17.5913 14.1089V13.3538C17.5913 13.2874 17.5649 13.2239 17.518 13.177C17.4711 13.1301 17.4076 13.1038 17.3413 13.1038H15.6052C15.5389 13.1038 15.4753 13.1301 15.4284 13.177C15.3815 13.2239 15.3552 13.2874 15.3552 13.3538V20.355C15.3552 20.4213 15.3815 20.4849 15.4284 20.5318C15.4753 20.5787 15.5389 20.605 15.6052 20.605H17.4344C17.5007 20.605 17.5643 20.5787 17.6112 20.5318C17.6581 20.4849 17.6844 20.4213 17.6844 20.355V16.8942C17.6844 15.9156 17.8701 14.9679 19.0833 14.9679C20.2792 14.9679 20.2947 16.0877 20.2947 16.9576V20.3553C20.2947 20.4216 20.321 20.4852 20.3679 20.5321C20.4148 20.579 20.4784 20.6053 20.5447 20.6053ZM11.375 10.7267C11.375 11.4682 11.9854 12.0784 12.727 12.0784C13.4684 12.0783 14.0784 11.4678 14.0784 10.7264C14.0783 9.98506 13.4682 9.375 12.7267 9.375C11.9851 9.375 11.375 9.98519 11.375 10.7267ZM11.8099 20.6053H13.6416C13.7079 20.6053 13.7715 20.579 13.8184 20.5321C13.8653 20.4852 13.8916 20.4216 13.8916 20.3553V13.3538C13.8916 13.2874 13.8653 13.2239 13.8184 13.177C13.7715 13.1301 13.7079 13.1038 13.6416 13.1038H11.8099C11.7436 13.1038 11.68 13.1301 11.6332 13.177C11.5863 13.2239 11.5599 13.2874 11.5599 13.3538V20.3553C11.5599 20.4216 11.5863 20.4852 11.6332 20.5321C11.68 20.579 11.7436 20.6053 11.8099 20.6053Z" fill="#0A66C2"/>
<path d="M36.0709 19.528H39.8309V21H34.2469V9.88H36.0709V19.528ZM42.2843 11.016C41.9536 11.016 41.6763 10.904 41.4523 10.68C41.2283 10.456 41.1163 10.1787 41.1163 9.848C41.1163 9.51733 41.2283 9.24 41.4523 9.016C41.6763 8.792 41.9536 8.68 42.2843 8.68C42.6043 8.68 42.8763 8.792 43.1003 9.016C43.3243 9.24 43.4363 9.51733 43.4363 9.848C43.4363 10.1787 43.3243 10.456 43.1003 10.68C42.8763 10.904 42.6043 11.016 42.2843 11.016ZM43.1803 12.184V21H41.3563V12.184H43.1803ZM50.023 12.04C50.7163 12.04 51.335 12.184 51.879 12.472C52.4337 12.76 52.8657 13.1867 53.175 13.752C53.4843 14.3173 53.639 15 53.639 15.8V21H51.831V16.072C51.831 15.2827 51.6337 14.68 51.239 14.264C50.8443 13.8373 50.3057 13.624 49.623 13.624C48.9403 13.624 48.3963 13.8373 47.991 14.264C47.5963 14.68 47.399 15.2827 47.399 16.072V21H45.575V12.184H47.399V13.192C47.6977 12.8293 48.0763 12.5467 48.535 12.344C49.0043 12.1413 49.5003 12.04 50.023 12.04ZM59.4536 16.6L63.5176 21H61.0536L57.7896 17.208V21H55.9656V9.16H57.7896V16.04L60.9896 12.184H63.5176L59.4536 16.6ZM72.905 16.376C72.905 16.7067 72.8837 17.0053 72.841 17.272H66.105C66.1583 17.976 66.4197 18.5413 66.889 18.968C67.3583 19.3947 67.9343 19.608 68.617 19.608C69.5983 19.608 70.2917 19.1973 70.697 18.376H72.665C72.3983 19.1867 71.913 19.8533 71.209 20.376C70.5157 20.888 69.6517 21.144 68.617 21.144C67.7743 21.144 67.017 20.9573 66.345 20.584C65.6837 20.2 65.161 19.6667 64.777 18.984C64.4037 18.2907 64.217 17.4907 64.217 16.584C64.217 15.6773 64.3983 14.8827 64.761 14.2C65.1343 13.5067 65.6517 12.9733 66.313 12.6C66.985 12.2267 67.753 12.04 68.617 12.04C69.449 12.04 70.1903 12.2213 70.841 12.584C71.4917 12.9467 71.9983 13.4587 72.361 14.12C72.7237 14.7707 72.905 15.5227 72.905 16.376ZM71.001 15.8C70.9903 15.128 70.7503 14.5893 70.281 14.184C69.8117 13.7787 69.2303 13.576 68.537 13.576C67.9077 13.576 67.369 13.7787 66.921 14.184C66.473 14.5787 66.2063 15.1173 66.121 15.8H71.001ZM74.092 16.552C74.092 15.6667 74.2733 14.8827 74.636 14.2C75.0093 13.5173 75.5107 12.9893 76.14 12.616C76.78 12.232 77.4893 12.04 78.268 12.04C78.844 12.04 79.4093 12.168 79.964 12.424C80.5293 12.6693 80.9773 13 81.308 13.416V9.16H83.148V21H81.308V19.672C81.0093 20.0987 80.5933 20.4507 80.06 20.728C79.5373 21.0053 78.9347 21.144 78.252 21.144C77.484 21.144 76.78 20.952 76.14 20.568C75.5107 20.1733 75.0093 19.6293 74.636 18.936C74.2733 18.232 74.092 17.4373 74.092 16.552ZM81.308 16.584C81.308 15.976 81.18 15.448 80.924 15C80.6787 14.552 80.3533 14.2107 79.948 13.976C79.5427 13.7413 79.1053 13.624 78.636 13.624C78.1667 13.624 77.7293 13.7413 77.324 13.976C76.9187 14.2 76.588 14.536 76.332 14.984C76.0867 15.4213 75.964 15.944 75.964 16.552C75.964 17.16 76.0867 17.6933 76.332 18.152C76.588 18.6107 76.9187 18.9627 77.324 19.208C77.74 19.4427 78.1773 19.56 78.636 19.56C79.1053 19.56 79.5427 19.4427 79.948 19.208C80.3533 18.9733 80.6787 18.632 80.924 18.184C81.18 17.7253 81.308 17.192 81.308 16.584ZM86.4718 11.016C86.1411 11.016 85.8638 10.904 85.6398 10.68C85.4158 10.456 85.3038 10.1787 85.3038 9.848C85.3038 9.51733 85.4158 9.24 85.6398 9.016C85.8638 8.792 86.1411 8.68 86.4718 8.68C86.7918 8.68 87.0638 8.792 87.2878 9.016C87.5118 9.24 87.6238 9.51733 87.6238 9.848C87.6238 10.1787 87.5118 10.456 87.2878 10.68C87.0638 10.904 86.7918 11.016 86.4718 11.016ZM87.3678 12.184V21H85.5438V12.184H87.3678ZM94.2105 12.04C94.9038 12.04 95.5225 12.184 96.0665 12.472C96.6212 12.76 97.0532 13.1867 97.3625 13.752C97.6718 14.3173 97.8265 15 97.8265 15.8V21H96.0185V16.072C96.0185 15.2827 95.8212 14.68 95.4265 14.264C95.0318 13.8373 94.4932 13.624 93.8105 13.624C93.1278 13.624 92.5838 13.8373 92.1785 14.264C91.7838 14.68 91.5865 15.2827 91.5865 16.072V21H89.7625V12.184H91.5865V13.192C91.8852 12.8293 92.2638 12.5467 92.7225 12.344C93.1918 12.1413 93.6878 12.04 94.2105 12.04Z" fill="white"/>
<defs>
<filter id="filter0_d_112_21" x="0" y="0" width="108" height="38" filterUnits="userSpaceOnUse" color-interpolation-filters="sRGB">
<feFlood flood-opacity="0" result="BackgroundImageFix"/>
<feColorMatrix in="SourceAlpha" type="matrix" values="0 0 0 0 0 0 0 0 0 0 0 0 0 0 0 0 0 0 127 0" result="hardAlpha"/>
<feOffset dy="4"/>
<feGaussianBlur stdDeviation="2"/>
<feComposite in2="hardAlpha" operator="out"/>
<feColorMatrix type="matrix" values="0 0 0 0 0 0 0 0 0 0 0 0 0 0 0 0 0 0 0.25 0"/>
<feBlend mode="normal" in2="BackgroundImageFix" result="effect1_dropShadow_112_21"/>
<feBlend mode="normal" in="SourceGraphic" in2="effect1_dropShadow_112_21" result="shape"/>
</filter>
</defs>
</svg>
