<svg width="108" height="38" viewBox="0 0 108 38" fill="none" xmlns="http://www.w3.org/2000/svg">
<g filter="url(#filter0_d_112_29)">
<rect x="4" width="100" height="30" rx="10" fill="black"/>
</g>
<path d="M22.5 7C21.4494 7 20.4091 7.21206 19.4385 7.62408C18.4679 8.0361 17.586 8.64001 16.8431 9.40132C15.3429 10.9389 14.5 13.0242 14.5 15.1986C14.5 18.8224 16.796 21.8969 19.972 22.9873C20.372 23.0529 20.5 22.7987 20.5 22.5774V21.1918C18.284 21.6837 17.812 20.0932 17.812 20.0932C17.444 19.1421 16.924 18.888 16.924 18.888C16.196 18.3797 16.98 18.3961 16.98 18.3961C17.78 18.4535 18.204 19.2405 18.204 19.2405C18.9 20.4867 20.076 20.1178 20.532 19.921C20.604 19.3881 20.812 19.0274 21.036 18.8224C19.26 18.6174 17.396 17.9124 17.396 14.7887C17.396 13.8786 17.7 13.149 18.22 12.5669C18.14 12.3619 17.86 11.5092 18.3 10.4024C18.3 10.4024 18.972 10.1811 20.5 11.2387C21.132 11.0583 21.82 10.9681 22.5 10.9681C23.18 10.9681 23.868 11.0583 24.5 11.2387C26.028 10.1811 26.7 10.4024 26.7 10.4024C27.14 11.5092 26.86 12.3619 26.78 12.5669C27.3 13.149 27.604 13.8786 27.604 14.7887C27.604 17.9206 25.732 18.6092 23.948 18.8142C24.236 19.0684 24.5 19.5685 24.5 20.3309V22.5774C24.5 22.7987 24.628 23.0611 25.036 22.9873C28.212 21.8887 30.5 18.8224 30.5 15.1986C30.5 14.122 30.2931 13.0558 29.891 12.0611C29.489 11.0664 28.8997 10.1626 28.1569 9.40132C27.414 8.64001 26.5321 8.0361 25.5615 7.62408C24.5909 7.21206 23.5506 7 22.5 7Z" fill="white"/>
<path d="M48.1621 13.08C47.8741 12.5253 47.4741 12.1093 46.9621 11.832C46.4501 11.544 45.8581 11.4 45.1861 11.4C44.4501 11.4 43.7941 11.5653 43.2181 11.896C42.6421 12.2267 42.1887 12.696 41.8581 13.304C41.5381 13.912 41.3781 14.616 41.3781 15.416C41.3781 16.216 41.5381 16.9253 41.8581 17.544C42.1887 18.152 42.6421 18.6213 43.2181 18.952C43.7941 19.2827 44.4501 19.448 45.1861 19.448C46.1781 19.448 46.9834 19.1707 47.6021 18.616C48.2207 18.0613 48.5994 17.3093 48.7381 16.36H44.5621V14.904H50.6901V16.328C50.5727 17.192 50.2634 17.9867 49.7621 18.712C49.2714 19.4373 48.6261 20.0187 47.8261 20.456C47.0367 20.8827 46.1567 21.096 45.1861 21.096C44.1407 21.096 43.1861 20.856 42.3221 20.376C41.4581 19.8853 40.7701 19.208 40.2581 18.344C39.7567 17.48 39.5061 16.504 39.5061 15.416C39.5061 14.328 39.7567 13.352 40.2581 12.488C40.7701 11.624 41.4581 10.952 42.3221 10.472C43.1967 9.98133 44.1514 9.736 45.1861 9.736C46.3701 9.736 47.4207 10.0293 48.3381 10.616C49.2661 11.192 49.9381 12.0133 50.3541 13.08H48.1621ZM53.4171 11.016C53.0864 11.016 52.8091 10.904 52.5851 10.68C52.3611 10.456 52.2491 10.1787 52.2491 9.848C52.2491 9.51733 52.3611 9.24 52.5851 9.016C52.8091 8.792 53.0864 8.68 53.4171 8.68C53.7371 8.68 54.0091 8.792 54.2331 9.016C54.4571 9.24 54.5691 9.51733 54.5691 9.848C54.5691 10.1787 54.4571 10.456 54.2331 10.68C54.0091 10.904 53.7371 11.016 53.4171 11.016ZM54.3131 12.184V21H52.4891V12.184H54.3131ZM58.8358 13.672V18.552C58.8358 18.8827 58.9105 19.1227 59.0598 19.272C59.2198 19.4107 59.4865 19.48 59.8598 19.48H60.9798V21H59.5398C58.7185 21 58.0891 20.808 57.6518 20.424C57.2145 20.04 56.9958 19.416 56.9958 18.552V13.672H55.9558V12.184H56.9958V9.992H58.8358V12.184H60.9798V13.672H58.8358ZM67.2209 12.04C67.8929 12.04 68.4903 12.184 69.0129 12.472C69.5463 12.76 69.9623 13.1867 70.2609 13.752C70.5703 14.3173 70.7249 15 70.7249 15.8V21H68.9169V16.072C68.9169 15.2827 68.7196 14.68 68.3249 14.264C67.9303 13.8373 67.3916 13.624 66.7089 13.624C66.0263 13.624 65.4823 13.8373 65.0769 14.264C64.6823 14.68 64.4849 15.2827 64.4849 16.072V21H62.6609V9.16H64.4849V13.208C64.7943 12.8347 65.1836 12.5467 65.6529 12.344C66.1329 12.1413 66.6556 12.04 67.2209 12.04ZM81.0356 12.184V21H79.2116V19.96C78.9236 20.3227 78.5449 20.6107 78.0756 20.824C77.6169 21.0267 77.1262 21.128 76.6036 21.128C75.9102 21.128 75.2862 20.984 74.7316 20.696C74.1876 20.408 73.7556 19.9813 73.4356 19.416C73.1262 18.8507 72.9716 18.168 72.9716 17.368V12.184H74.7796V17.096C74.7796 17.8853 74.9769 18.4933 75.3716 18.92C75.7662 19.336 76.3049 19.544 76.9876 19.544C77.6702 19.544 78.2089 19.336 78.6036 18.92C79.0089 18.4933 79.2116 17.8853 79.2116 17.096V12.184H81.0356ZM85.2662 13.496C85.5755 13.0693 85.9969 12.7227 86.5302 12.456C87.0742 12.1787 87.6769 12.04 88.3382 12.04C89.1169 12.04 89.8209 12.2267 90.4502 12.6C91.0795 12.9733 91.5755 13.5067 91.9382 14.2C92.3009 14.8827 92.4822 15.6667 92.4822 16.552C92.4822 17.4373 92.3009 18.232 91.9382 18.936C91.5755 19.6293 91.0742 20.1733 90.4342 20.568C89.8049 20.952 89.1062 21.144 88.3382 21.144C87.6555 21.144 87.0475 21.0107 86.5142 20.744C85.9915 20.4773 85.5755 20.136 85.2662 19.72V21H83.4422V9.16H85.2662V13.496ZM90.6262 16.552C90.6262 15.944 90.4982 15.4213 90.2422 14.984C89.9969 14.536 89.6662 14.2 89.2502 13.976C88.8449 13.7413 88.4075 13.624 87.9382 13.624C87.4795 13.624 87.0422 13.7413 86.6262 13.976C86.2209 14.2107 85.8902 14.552 85.6342 15C85.3889 15.448 85.2662 15.976 85.2662 16.584C85.2662 17.192 85.3889 17.7253 85.6342 18.184C85.8902 18.632 86.2209 18.9733 86.6262 19.208C87.0422 19.4427 87.4795 19.56 87.9382 19.56C88.4075 19.56 88.8449 19.4427 89.2502 19.208C89.6662 18.9627 89.9969 18.6107 90.2422 18.152C90.4982 17.6933 90.6262 17.16 90.6262 16.552Z" fill="white"/>
<defs>
<filter id="filter0_d_112_29" x="0" y="0" width="108" height="38" filterUnits="userSpaceOnUse" color-interpolation-filters="sRGB">
<feFlood flood-opacity="0" result="BackgroundImageFix"/>
<feColorMatrix in="SourceAlpha" type="matrix" values="0 0 0 0 0 0 0 0 0 0 0 0 0 0 0 0 0 0 127 0" result="hardAlpha"/>
<feOffset dy="4"/>
<feGaussianBlur stdDeviation="2"/>
<feComposite in2="hardAlpha" operator="out"/>
<feColorMatrix type="matrix" values="0 0 0 0 0 0 0 0 0 0 0 0 0 0 0 0 0 0 0.25 0"/>
<feBlend mode="normal" in2="BackgroundImageFix" result="effect1_dropShadow_112_29"/>
<feBlend mode="normal" in="SourceGraphic" in2="effect1_dropShadow_112_29" result="shape"/>
</filter>
</defs>
</svg>
